<?xml version="1.0" encoding="UTF-8"?>
<svg version="1.1" xmlns="http://www.w3.org/2000/svg" width="400" height="400">
<path d="M0 0 C132 0 264 0 400 0 C400 132 400 264 400 400 C268 400 136 400 0 400 C0 268 0 136 0 0 Z " fill="#000000" transform="translate(0,0)"/>
<path d="M0 0 C34.95572482 0 64.78502927 14.82491253 89.17578125 39.171875 C111.44639598 62.91529592 121.1655512 94.29334301 120.41015625 126.34765625 C119.17288013 153.03636161 108.32499389 177.8862747 91 198 C90.41089844 198.73347656 89.82179688 199.46695313 89.21484375 200.22265625 C76.99575817 214.93225609 59.60587655 225.18153914 42 232 C40.59041016 232.57041016 40.59041016 232.57041016 39.15234375 233.15234375 C32.84566082 235.50293584 26.50244883 236.72611356 19.875 237.75 C19.05177246 237.87785889 18.22854492 238.00571777 17.38037109 238.13745117 C11.43308465 238.97936132 6.12026031 239 0 239 C0 222.83 0 206.66 0 190 C3.96 189.67 7.92 189.34 12 189 C29.57129943 185.37665001 46.3895843 175.60792702 57 161 C61.64743144 153.54928872 65.93057874 145.57331665 68 137 C68.20238281 136.17628906 68.40476562 135.35257813 68.61328125 134.50390625 C72.65351656 115.56702104 68.74540453 98.37283228 59 82 C56.87439436 78.7700036 54.5932952 75.86415048 52 73 C51.12988281 71.99259766 51.12988281 71.99259766 50.2421875 70.96484375 C36.67183575 56.23050786 19.32499754 52.41562469 0 50 C0 33.5 0 17 0 0 Z " fill="#FCFCFC" transform="translate(224,75)"/>
<path d="M0 0 C15.60020131 0 28.50921146 4.9116139 39.8203125 15.7890625 C40.53960937 16.51867187 41.25890625 17.24828125 42 18 C42.57492187 18.56460938 43.14984375 19.12921875 43.7421875 19.7109375 C55.03657481 31.70756651 56.65750928 46.41206222 56.37890625 62.078125 C56.06584453 69.21907404 54.49007929 74.7050664 51 81 C50.50757813 81.91910156 50.01515625 82.83820313 49.5078125 83.78515625 C42.21142418 96.61999477 30.85696653 106.50512252 16.46875 110.74609375 C10.72842575 112.03057989 6.12031321 112 0 112 C0 96.16 0 80.32 0 64 C1.98 63.01 3.96 62.02 6 61 C7.81896973 57.36206054 7.25254202 53.75762607 6 50 C4.02 49.67 2.04 49.34 0 49 C0 32.83 0 16.66 0 0 Z " fill="#FBFBFB" transform="translate(224,139)"/>
<path d="M0 0 C0.75697174 -0.0066568 1.51394348 -0.0133136 2.29385376 -0.02017212 C3.89249245 -0.03027849 5.49117315 -0.03498976 7.08984375 -0.03466797 C9.52415202 -0.03903575 11.95663793 -0.07535794 14.390625 -0.11328125 C15.9479105 -0.11915115 17.50520457 -0.12311938 19.0625 -0.125 C20.14559952 -0.14655655 20.14559952 -0.14655655 21.25057983 -0.16854858 C26.38838448 -0.12255502 29.27433002 1.00969358 33.1640625 4.3359375 C37.50141799 9.28145978 37.71201812 13.18806617 37.5546875 19.453125 C37.54902771 20.31028107 37.54336792 21.16743713 37.53753662 22.05056763 C37.51525889 24.7712743 37.46508024 27.49063318 37.4140625 30.2109375 C37.3939863 32.06248089 37.3757375 33.91404506 37.359375 35.765625 C37.31883408 40.28999145 37.24053242 44.81146735 37.1640625 49.3359375 C28.9140625 49.3359375 20.6640625 49.3359375 12.1640625 49.3359375 C12.1640625 45.3759375 12.1640625 41.4159375 12.1640625 37.3359375 C10.8440625 37.3359375 9.5240625 37.3359375 8.1640625 37.3359375 C8.1640625 41.2959375 8.1640625 45.2559375 8.1640625 49.3359375 C-0.4159375 49.3359375 -8.9959375 49.3359375 -17.8359375 49.3359375 C-17.97425275 43.92627425 -18.09349608 38.52282071 -18.16552734 33.11279297 C-18.19557003 31.27566668 -18.23641769 29.43868228 -18.28857422 27.60205078 C-18.36194895 24.95048926 -18.39551737 22.30083434 -18.421875 19.6484375 C-18.45284271 18.83665039 -18.48381042 18.02486328 -18.51571655 17.18847656 C-18.51900078 11.53435492 -17.02529725 8.36370325 -13.51846313 3.95385742 C-9.46899658 0.05988251 -5.39014141 0.01652156 0 0 Z " fill="#F8F8F8" transform="translate(180.8359375,201.6640625)"/>
<path d="M0 0 C11.446875 -0.12375 11.446875 -0.12375 23.125 -0.25 C25.52410645 -0.28641602 27.92321289 -0.32283203 30.39501953 -0.36035156 C32.30760809 -0.37203969 34.22020664 -0.38223122 36.1328125 -0.390625 C37.11693115 -0.41108887 38.1010498 -0.43155273 39.11499023 -0.45263672 C45.08894506 -0.45566534 48.41476043 0.07892031 53 4 C55.15904819 6.15904819 54.23159535 10.88884545 54.25 13.875 C54.270625 14.70386719 54.29125 15.53273438 54.3125 16.38671875 C54.32023437 17.58361328 54.32023437 17.58361328 54.328125 18.8046875 C54.34214355 19.90272705 54.34214355 19.90272705 54.35644531 21.02294922 C53.90666091 23.51771227 52.91096176 24.40122506 51 26 C51.4844458 26.39872314 51.9688916 26.79744629 52.46801758 27.20825195 C54.40604645 29.4748964 54.4177165 30.71629823 54.51171875 33.66796875 C54.54716797 34.56064453 54.58261719 35.45332031 54.61914062 36.37304688 C54.65297852 37.76620117 54.65297852 37.76620117 54.6875 39.1875 C54.72166016 40.12787109 54.75582031 41.06824219 54.79101562 42.03710938 C54.87348218 44.35795393 54.94263403 46.67842148 55 49 C50.87505849 49.05784708 46.75022056 49.09354407 42.625 49.125 C41.449375 49.14175781 40.27375 49.15851563 39.0625 49.17578125 C37.38027344 49.18544922 37.38027344 49.18544922 35.6640625 49.1953125 C34.62717285 49.20578613 33.5902832 49.21625977 32.52197266 49.22705078 C30 49 30 49 28 47 C27.8046875 44.3984375 27.8046875 44.3984375 27.875 41.375 C27.89304687 40.37210937 27.91109375 39.36921875 27.9296875 38.3359375 C27.95289062 37.56507813 27.97609375 36.79421875 28 36 C26.68 36 25.36 36 24 36 C24 40.29 24 44.58 24 49 C16.08 49 8.16 49 0 49 C0 32.83 0 16.66 0 0 Z " fill="#FAFAFA" transform="translate(78,265)"/>
<path d="M0 0 C0.7314473 -0.00902847 1.46289459 -0.01805695 2.21650696 -0.02735901 C3.76563428 -0.04186169 5.31482287 -0.05074831 6.86401367 -0.05444336 C9.21315681 -0.06627966 11.55961918 -0.11540491 13.90820312 -0.16601562 C27.4653397 -0.3160412 27.4653397 -0.3160412 33.11645508 3.80444336 C38.89176294 10.11255409 38.03210929 16.6844689 37.98828125 24.80859375 C38.01825195 26.7740918 38.01825195 26.7740918 38.04882812 28.77929688 C38.04818359 30.04580078 38.04753906 31.31230469 38.046875 32.6171875 C38.04965454 34.34473267 38.04965454 34.34473267 38.05249023 36.10717773 C37.34866463 40.68598288 35.6537404 43.68469321 32.00411987 46.61138916 C27.74179459 49.33521415 23.73877775 49.99813052 18.7109375 50.0078125 C17.98514999 50.01875443 17.25936249 50.02969635 16.51158142 50.04096985 C14.98638967 50.05673868 13.46105709 50.06205921 11.93579102 50.05737305 C9.62078836 50.0585898 7.31208496 50.11846121 4.99804688 50.18164062 C-7.35619778 50.3285859 -7.35619778 50.3285859 -12.390625 46.078125 C-18.47399962 39.65317284 -17.91243457 33.09909902 -18.01171875 24.62109375 C-18.06134766 23.37070312 -18.11097656 22.1203125 -18.16210938 20.83203125 C-18.23022748 14.6949141 -18.21075478 10.39501953 -14.1015625 5.60546875 C-9.57566535 1.22128618 -6.21246926 0.047382 0 0 Z " fill="#F9F9F9" transform="translate(180.44921875,264.62890625)"/>
<path d="M0 0 C7.59 0 15.18 0 23 0 C24.32 3.3 25.64 6.6 27 10 C27.33 6.7 27.66 3.4 28 0 C36.25 0 44.5 0 53 0 C53 16.17 53 32.34 53 49 C45.74 49 38.48 49 31 49 C30.01 46.36 29.02 43.72 28 41 C27.34 39.35 26.68 37.7 26 36 C25.67 40.29 25.34 44.58 25 49 C16.75 49 8.5 49 0 49 C0 32.83 0 16.66 0 0 Z " fill="#F9F9F9" transform="translate(165,139)"/>
<path d="M0 0 C7.59 0 15.18 0 23 0 C24.32 3.3 25.64 6.6 27 10 C27.33 6.7 27.66 3.4 28 0 C36.25 0 44.5 0 53 0 C53 15.84 53 31.68 53 48 C45.41 48 37.82 48 30 48 C28.68 44.04 27.36 40.08 26 36 C25.67 40.29 25.34 44.58 25 49 C16.75 49 8.5 49 0 49 C0 32.83 0 16.66 0 0 Z " fill="#FAFAFA" transform="translate(165,76)"/>
<path d="M0 0 C17.49 0 34.98 0 53 0 C53 5.61 53 11.22 53 17 C43.76 17 34.52 17 25 17 C25 17.99 25 18.98 25 20 C33.25 20 41.5 20 50 20 C50 22.97 50 25.94 50 29 C41.75 29 33.5 29 25 29 C25 29.66 25 30.32 25 31 C34.24 31 43.48 31 53 31 C53 36.94 53 42.88 53 49 C35.51 49 18.02 49 0 49 C0 32.83 0 16.66 0 0 Z " fill="#F8F8F8" transform="translate(109,139)"/>
<path d="M0 0 C3.95827235 -0.05785647 7.9164367 -0.09354717 11.875 -0.125 C13.00292969 -0.14175781 14.13085938 -0.15851563 15.29296875 -0.17578125 C16.36933594 -0.18222656 17.44570312 -0.18867188 18.5546875 -0.1953125 C19.54968262 -0.20578613 20.54467773 -0.21625977 21.56982422 -0.22705078 C24 0 24 0 26 2 C26.17495606 4.50920846 26.23169569 6.90624941 26.1953125 9.4140625 C26.1924826 10.14370209 26.18965271 10.87334167 26.18673706 11.62509155 C26.17553002 13.95856028 26.1504251 16.29164703 26.125 18.625 C26.11497085 20.20572363 26.10584489 21.78645327 26.09765625 23.3671875 C26.07558905 27.24493914 26.04105615 31.12240478 26 35 C26.66 35 27.32 35 28 35 C27.98428955 34.04633545 27.9685791 33.0926709 27.95239258 32.11010742 C27.89808322 28.57113087 27.86364667 25.03219114 27.83520508 21.49291992 C27.82012064 19.96128139 27.79965022 18.42968602 27.77368164 16.89819336 C27.73728153 14.69634346 27.72027087 12.49506467 27.70703125 10.29296875 C27.69154739 9.60849167 27.67606354 8.92401459 27.66011047 8.21879578 C27.65913489 5.461436 27.72645341 3.4522637 29.171875 1.0625 C31.71991371 -0.41841139 33.60544209 -0.33959616 36.54296875 -0.29296875 C38.15268555 -0.2784668 38.15268555 -0.2784668 39.79492188 -0.26367188 C40.91447266 -0.23853516 42.03402344 -0.21339844 43.1875 -0.1875 C44.31865234 -0.17396484 45.44980469 -0.16042969 46.61523438 -0.14648438 C49.41063317 -0.11109958 52.20507892 -0.06172948 55 0 C55.005369 4.67831601 54.97128295 9.35417014 54.90234375 14.03198242 C54.88429871 15.61946262 54.8765942 17.20709838 54.87988281 18.79467773 C54.89180887 28.2729157 54.69409965 35.67342335 48 43 C47.25645264 44.04857178 46.51290527 45.09714355 45.74682617 46.17749023 C41.51254777 50.52843616 37.3001008 49.93021573 31.57617188 50.015625 C30.85486084 50.01111328 30.1335498 50.00660156 29.39038086 50.00195312 C27.1995232 50.00001066 25.02280688 50.08308896 22.83398438 50.171875 C12.69731088 50.34348895 12.69731088 50.34348895 8.27587891 46.84375 C6.21493174 44.31235407 4.55194273 41.86766639 3 39 C2.61432861 38.39897461 2.22865723 37.79794922 1.83129883 37.17871094 C0.55907627 33.84440429 0.64058176 30.47713171 0.5859375 26.953125 C0.56657135 26.18192322 0.5472052 25.41072144 0.5272522 24.6161499 C0.46762923 22.16087795 0.42114086 19.70555867 0.375 17.25 C0.33680425 15.58201118 0.29775159 13.91404174 0.2578125 12.24609375 C0.16194209 8.16422057 0.07784765 4.08225507 0 0 Z " fill="#F9F9F9" transform="translate(51,139)"/>
<path d="M0 0 C17.49 0 34.98 0 53 0 C53 5.61 53 11.22 53 17 C48.38 17 43.76 17 39 17 C39 27.56 39 38.12 39 49 C30.75 49 22.5 49 14 49 C14 38.44 14 27.88 14 17 C9.38 17 4.76 17 0 17 C0 11.39 0 5.78 0 0 Z " fill="#FAFAFA" transform="translate(107,202)"/>
<path d="M0 0 C8.58 0 17.16 0 26 0 C26 16.17 26 32.34 26 49 C17.42 49 8.84 49 0 49 C0 32.83 0 16.66 0 0 Z " fill="#F6F6F6" transform="translate(134,265)"/>
<path d="M0 0 C8.25 0 16.5 0 25 0 C25 15.84 25 31.68 25 48 C16.75 48 8.5 48 0 48 C0 32.16 0 16.32 0 0 Z " fill="#FDFDFD" transform="translate(137,76)"/>
<path d="M0 0 C0.99 0.33 1.98 0.66 3 1 C3 7.93 3 14.86 3 22 C1.68 22 0.36 22 -1 22 C-1.02887814 18.52085059 -1.04675687 15.04173169 -1.0625 11.5625 C-1.07087891 10.56927734 -1.07925781 9.57605469 -1.08789062 8.55273438 C-1.09111328 7.60849609 -1.09433594 6.66425781 -1.09765625 5.69140625 C-1.10289307 4.81685791 -1.10812988 3.94230957 -1.11352539 3.04125977 C-1 1 -1 1 0 0 Z " fill="#1B1B1B" transform="translate(190,278)"/>
<path d="M0 0 C1.65 0 3.3 0 5 0 C5 3.3 5 6.6 5 10 C3.35 10 1.7 10 0 10 C0 6.7 0 3.4 0 0 Z " fill="#1F1F1F" transform="translate(188,216)"/>
<path d="M0 0 C2.475 0.495 2.475 0.495 5 1 C5.125 4.375 5.125 4.375 5 8 C4.34 8.66 3.68 9.32 3 10 C2.01 10 1.02 10 0 10 C0 6.7 0 3.4 0 0 Z " fill="#252525" transform="translate(102,279)"/>
<path d="M0 0 C3 4 3 4 2.85546875 6.796875 C2.63503906 7.77140625 2.41460937 8.7459375 2.1875 9.75 C1.97480469 10.73484375 1.76210937 11.7196875 1.54296875 12.734375 C1.36378906 13.48203125 1.18460938 14.2296875 1 15 C0.67 15 0.34 15 0 15 C0 10.05 0 5.1 0 0 Z " fill="#454545" transform="translate(190,173)"/>
<path d="M0 0 C3 4 3 4 3 6 C2.34 6 1.68 6 1 6 C1 8.64 1 11.28 1 14 C0.67 14 0.34 14 0 14 C0 9.38 0 4.76 0 0 Z " fill="#484848" transform="translate(190,110)"/>
</svg>
